<?xml version="1.0" standalone="no"?>
<!DOCTYPE svg PUBLIC "-//W3C//DTD SVG 20010904//EN"
 "http://www.w3.org/TR/2001/REC-SVG-20010904/DTD/svg10.dtd">
<svg version="1.0" xmlns="http://www.w3.org/2000/svg"
 width="735.000000pt" height="386.000000pt" viewBox="0 0 735.000000 386.000000"
 preserveAspectRatio="xMidYMid meet">

<g transform="translate(0.000000,386.000000) scale(0.100000,-0.100000)"
fill="#000000" stroke="none">
<path d="M2527 3845 c-27 -7 -51 -16 -53 -18 -5 -4 115 -497 123 -506 4 -6
113 21 118 29 2 3 -25 118 -61 256 -35 137 -64 250 -64 252 0 3 -12 1 -63 -13z"/>
<path d="M4406 3818 c-8 -13 -22 -77 -31 -143 -20 -145 -29 -171 -63 -183 -41
-14 -61 1 -137 105 -84 114 -119 146 -149 137 -11 -3 -64 -38 -116 -78 l-95
-71 -130 -2 c-148 -2 -226 -12 -350 -48 -190 -55 -359 -157 -510 -308 -193
-194 -309 -428 -347 -701 -13 -89 -13 -90 -45 -98 -36 -9 -42 -22 -69 -155
-10 -51 -22 -93 -26 -93 -4 0 -45 26 -90 58 -46 32 -91 61 -101 65 -29 11 -65
-15 -171 -122 -80 -80 -99 -105 -99 -128 0 -20 21 -60 63 -121 35 -50 62 -93
59 -95 -2 -2 -51 -13 -108 -25 -57 -12 -112 -29 -122 -38 -17 -15 -19 -33 -19
-175 0 -188 -7 -178 145 -209 54 -11 100 -22 103 -24 2 -3 -23 -44 -56 -93
-77 -114 -79 -122 -45 -164 63 -78 208 -209 231 -209 12 0 63 27 112 60 49 33
93 60 98 60 5 0 19 -50 32 -110 17 -85 27 -114 43 -125 17 -12 55 -15 169 -15
129 0 150 2 166 18 11 11 27 61 41 130 13 61 26 110 30 108 4 -3 47 -32 96
-65 49 -34 99 -61 113 -61 15 0 44 20 82 56 l58 55 4 -123 c4 -140 18 -178 87
-243 l40 -38 3 -211 c3 -194 5 -214 25 -251 25 -47 74 -95 123 -121 50 -27
353 -33 435 -9 67 19 125 68 157 133 21 44 23 62 26 255 l4 209 38 34 c74 67
84 102 90 329 5 169 8 205 24 235 36 67 59 92 150 159 125 93 123 89 80 139
-20 23 -39 42 -44 42 -22 0 -218 -160 -252 -205 -71 -93 -81 -135 -87 -355 -6
-206 -10 -222 -57 -259 -26 -20 -38 -21 -326 -21 -403 0 -388 -10 -388 262 0
278 -40 366 -224 495 -122 86 -229 195 -301 303 -136 207 -194 418 -182 659
27 528 427 956 952 1020 122 15 125 15 125 -10 0 -12 38 -73 85 -136 94 -127
104 -160 60 -189 -23 -15 -34 -15 -148 1 -67 9 -131 19 -143 22 -13 3 -31 -4
-48 -19 -24 -21 -28 -37 -51 -196 -30 -209 -31 -253 -7 -275 11 -10 67 -23
156 -36 149 -22 176 -34 176 -81 0 -31 -23 -54 -140 -139 -95 -70 -110 -86
-110 -115 0 -12 57 -98 128 -191 161 -215 146 -211 309 -90 126 93 151 101
184 55 18 -24 18 -29 -1 -155 -24 -160 -24 -158 -2 -184 14 -18 47 -25 225
-51 216 -31 235 -30 256 8 5 10 17 76 27 146 18 138 36 176 80 176 30 0 42
-12 138 -139 43 -56 84 -105 92 -108 8 -3 24 -3 37 1 25 6 324 226 345 253 23
32 12 60 -68 167 -91 120 -103 143 -87 172 22 40 46 42 210 18 116 -17 151
-14 166 14 11 21 61 358 61 412 0 21 -7 43 -15 50 -8 6 -79 22 -159 34 -79 12
-152 28 -161 36 -11 9 -15 25 -13 49 3 32 13 43 113 118 116 88 135 107 135
133 0 16 -195 286 -248 343 -14 15 -36 27 -48 27 -12 0 -73 -38 -136 -84 -62
-46 -120 -85 -128 -86 -34 -5 -50 1 -65 24 -15 23 -15 36 4 166 22 147 20 169
-17 189 -20 11 -357 61 -408 61 -24 0 -38 -7 -48 -22z m350 -151 c2 -2 -3 -51
-11 -109 -13 -93 -13 -112 0 -155 25 -83 92 -133 180 -133 60 0 81 10 176 80
45 33 85 59 90 58 9 -3 149 -188 149 -197 0 -4 -10 -12 -22 -20 -66 -41 -160
-126 -178 -161 -52 -102 1 -230 109 -264 25 -8 84 -19 130 -25 46 -6 85 -12
86 -14 5 -5 -32 -237 -38 -243 -3 -4 -40 -1 -82 5 -145 21 -218 9 -267 -46
-45 -50 -61 -144 -34 -206 7 -18 39 -66 70 -107 31 -41 56 -78 56 -82 0 -4
-44 -41 -99 -82 l-98 -75 -67 89 c-81 108 -120 134 -196 135 -122 0 -181 -66
-204 -234 -8 -57 -17 -105 -19 -107 -2 -3 -59 3 -127 13 l-122 17 6 40 c3 23
9 80 13 129 5 72 3 94 -12 127 -20 44 -62 81 -114 98 -77 27 -124 11 -242 -78
-76 -59 -81 -61 -95 -43 -45 58 -134 182 -134 186 0 3 30 28 68 55 116 87 152
138 152 218 0 45 -13 75 -52 119 -42 48 -71 60 -188 76 -52 7 -98 15 -102 18
-8 7 21 232 31 243 4 4 54 0 112 -8 82 -12 115 -13 147 -5 109 30 170 154 128
256 -8 19 -42 71 -76 114 l-60 80 99 76 c55 41 102 75 105 75 2 0 34 -40 71
-89 48 -66 77 -95 109 -110 80 -39 185 -19 235 45 25 32 48 107 56 189 11 101
-2 94 136 74 66 -10 123 -19 125 -22z m-2266 -1510 c0 -19 19 -103 36 -158 3
-13 -4 -18 -33 -24 -60 -11 -150 -64 -197 -116 -141 -157 -137 -377 9 -525 28
-27 77 -63 110 -80 54 -26 70 -29 160 -29 93 0 105 2 166 32 61 30 139 100
166 147 10 18 17 15 96 -42 82 -60 147 -135 147 -171 0 -16 -118 -141 -133
-141 -4 0 -39 22 -78 49 -80 57 -115 67 -164 51 -56 -18 -80 -57 -101 -159
l-18 -91 -77 0 -78 0 -11 58 c-28 142 -47 174 -110 193 -49 15 -81 4 -172 -58
l-69 -47 -58 58 -59 58 54 80 c46 67 54 86 54 125 0 33 -7 55 -24 78 -25 33
-47 42 -171 68 l-60 12 -3 76 -3 76 98 22 c103 23 118 30 146 71 31 45 22 99
-31 181 -26 41 -51 79 -55 85 -3 6 20 36 52 68 l57 57 73 -52 c40 -28 86 -55
102 -59 63 -18 143 31 155 96 7 38 24 46 24 11z m116 -349 c35 -70 95 -157
159 -233 52 -60 52 -62 38 -91 -46 -88 -139 -139 -243 -132 -73 6 -113 23
-159 69 -104 103 -104 257 -2 359 33 33 64 54 97 64 76 23 81 21 110 -36z
m1334 -1293 l0 -65 -255 0 -255 0 0 65 0 65 255 0 255 0 0 -65z m0 -242 c0
-57 -26 -105 -69 -128 -24 -12 -66 -15 -197 -15 l-166 0 -39 39 c-36 36 -39
43 -39 95 l0 56 255 0 255 0 0 -47z"/>
<path d="M4376 3235 c-227 -58 -386 -261 -386 -492 0 -138 41 -247 130 -346
166 -186 454 -223 659 -86 308 206 307 649 -3 854 -111 74 -272 102 -400 70z
m279 -149 c79 -35 156 -112 192 -190 25 -54 28 -72 28 -161 0 -91 -3 -105 -30
-159 -79 -156 -251 -247 -410 -216 -306 60 -423 426 -207 646 80 81 169 115
287 111 61 -2 94 -10 140 -31z"/>
<path d="M1955 3459 c-21 -28 -34 -54 -29 -58 16 -14 434 -311 438 -311 2 0
20 22 39 49 33 45 34 50 19 64 -14 12 -202 147 -399 285 l-31 22 -37 -51z"/>
<path d="M3138 3079 c-423 -317 -468 -957 -93 -1335 86 -87 161 -138 297 -203
165 -79 245 -175 270 -325 l11 -66 58 0 c32 0 60 3 62 7 11 19 -17 152 -43
210 -65 143 -131 204 -325 302 -66 33 -149 84 -186 114 -273 226 -351 629
-183 948 47 90 133 191 204 242 33 23 59 44 59 47 1 3 -14 29 -32 58 l-32 51
-67 -50z"/>
<path d="M2070 2819 c-129 -33 -240 -61 -247 -64 -8 -3 -8 -19 4 -62 8 -32 16
-59 18 -61 3 -3 497 119 504 124 7 6 -25 118 -34 120 -6 1 -116 -25 -245 -57z"/>
<path d="M4900 1410 l0 -60 215 0 c118 0 218 -1 223 -2 4 -2 8 25 10 60 l3 62
-226 0 -225 0 0 -60z"/>
<path d="M4840 1094 c-19 -24 -35 -48 -35 -53 0 -6 61 -60 135 -122 74 -61
158 -131 187 -155 l51 -44 42 49 41 50 -178 148 c-97 81 -184 153 -193 159
-12 9 -21 3 -50 -32z"/>
<path d="M3627 1024 c-4 -4 -7 -50 -7 -101 l0 -94 63 3 62 3 0 95 0 95 -55 3
c-31 2 -59 0 -63 -4z"/>
<path d="M4520 735 l0 -225 60 0 60 0 0 225 0 225 -60 0 -60 0 0 -225z"/>
</g>
</svg>
